<svg width="126" height="37" viewBox="0 0 126 37" fill="none" xmlns="http://www.w3.org/2000/svg">
<path d="M31.7349 28.04C30.5589 28.04 29.2269 27.824 27.7389 27.392C26.2749 26.984 24.7509 26.468 23.1669 25.844C21.6069 25.22 20.0949 24.572 18.6309 23.9C17.1669 23.252 15.8589 22.688 14.7069 22.208C13.6269 23.384 12.3789 24.356 10.9629 25.124C9.54688 25.916 7.92688 26.312 6.10288 26.312C4.35088 26.312 3.04288 25.964 2.17888 25.268C1.31488 24.572 0.882875 23.78 0.882875 22.892C0.882875 22.268 1.09888 21.668 1.53088 21.092C1.98688 20.492 2.65888 20 3.54688 19.616C4.43488 19.232 5.53888 19.04 6.85888 19.04C8.22688 19.04 9.52288 19.208 10.7469 19.544C11.9709 19.856 13.1709 20.24 14.3469 20.696C14.9709 19.928 15.5589 19.088 16.1109 18.176C16.6629 17.24 17.1909 16.292 17.6949 15.332C16.9029 15.404 16.0989 15.44 15.2829 15.44C13.6029 15.44 11.8749 15.26 10.0989 14.9C8.63488 14.588 7.51888 14.036 6.75088 13.244C6.00688 12.428 5.63488 11.552 5.63488 10.616C5.63488 9.512 6.15088 8.456 7.18288 7.448C8.21488 6.416 9.78688 5.708 11.8989 5.324H12.0429C12.2349 5.324 12.3909 5.396 12.5109 5.54C12.6549 5.66 12.7269 5.804 12.7269 5.972C12.7269 6.284 12.5469 6.476 12.1869 6.548C10.3389 6.884 9.00688 7.424 8.19088 8.168C7.39888 8.888 7.00288 9.632 7.00288 10.4C7.00288 11.144 7.30288 11.828 7.90288 12.452C8.52688 13.052 9.35488 13.448 10.3869 13.64C12.0909 14 13.7469 14.18 15.3549 14.18C16.3869 14.18 17.3829 14.108 18.3429 13.964C18.9909 12.596 19.6269 11.24 20.2509 9.896C20.8749 8.552 21.5109 7.304 22.1589 6.152C22.8309 4.976 23.5509 3.98 24.3189 3.164C25.1349 2.324 25.9389 1.712 26.7309 1.328C27.5229 0.943999 28.2549 0.751999 28.9269 0.751999C29.9349 0.751999 30.7629 1.1 31.4109 1.796C32.0829 2.468 32.4189 3.332 32.4189 4.388C32.4189 5.132 32.2269 5.924 31.8429 6.764C31.4589 7.604 30.8469 8.456 30.0069 9.32C28.4709 10.904 26.7909 12.176 24.9669 13.136C23.1669 14.072 21.2709 14.72 19.2789 15.08C19.1109 15.44 18.9429 15.788 18.7749 16.124C18.6309 16.436 18.4749 16.748 18.3069 17.06C17.9229 17.756 17.5029 18.464 17.0469 19.184C16.5909 19.88 16.0989 20.564 15.5709 21.236C16.3629 21.596 17.1549 21.968 17.9469 22.352C18.7629 22.712 19.5909 23.06 20.4309 23.396C21.0549 23.636 21.8349 23.948 22.7709 24.332C23.7069 24.716 24.7029 25.1 25.7589 25.484C26.8389 25.868 27.8949 26.18 28.9269 26.42C29.9829 26.684 30.9189 26.816 31.7349 26.816C32.1189 26.816 32.4549 26.78 32.7429 26.708C32.7909 26.708 32.8269 26.696 32.8509 26.672C32.8749 26.672 32.8989 26.672 32.9229 26.672C33.1149 26.672 33.2589 26.744 33.3549 26.888C33.4749 27.032 33.5349 27.188 33.5349 27.356C33.5349 27.668 33.3669 27.86 33.0309 27.932C32.6469 28.004 32.2149 28.04 31.7349 28.04ZM25.2909 4.028C24.5709 4.796 23.8989 5.72 23.2749 6.8C22.6509 7.856 22.0629 8.984 21.5109 10.184C20.9589 11.36 20.4309 12.524 19.9269 13.676C21.6069 13.268 23.2149 12.644 24.7509 11.804C26.2869 10.94 27.7149 9.836 29.0349 8.492C29.7549 7.748 30.2709 7.028 30.5829 6.332C30.8949 5.612 31.0509 4.964 31.0509 4.388C31.0509 3.692 30.8469 3.128 30.4389 2.696C30.0549 2.24 29.5389 2.012 28.8909 2.012C28.3869 2.012 27.8229 2.18 27.1989 2.516C26.5989 2.828 25.9629 3.332 25.2909 4.028ZM2.21488 22.892C2.21488 23.444 2.52688 23.936 3.15088 24.368C3.79888 24.824 4.78288 25.052 6.10288 25.052C7.63888 25.052 9.00688 24.74 10.2069 24.116C11.4309 23.516 12.5229 22.712 13.4829 21.704H13.4469C12.3909 21.296 11.3109 20.96 10.2069 20.696C9.10287 20.408 7.98688 20.264 6.85888 20.264C5.34688 20.264 4.19488 20.54 3.40288 21.092C2.61088 21.644 2.21488 22.244 2.21488 22.892ZM34.492 11.804C34.204 11.804 33.94 11.708 33.7 11.516C33.484 11.3 33.376 11.036 33.376 10.724C33.376 10.388 33.484 10.112 33.7 9.896C33.916 9.68 34.18 9.572 34.492 9.572C34.828 9.572 35.104 9.68 35.32 9.896C35.536 10.112 35.644 10.388 35.644 10.724C35.644 11.036 35.524 11.3 35.284 11.516C35.068 11.708 34.804 11.804 34.492 11.804ZM29.164 22.604C28.852 22.604 28.6 22.52 28.408 22.352C28.216 22.16 28.12 21.86 28.12 21.452C28.12 20.948 28.24 20.336 28.48 19.616C28.72 18.872 29.032 18.116 29.416 17.348C29.8 16.556 30.208 15.836 30.64 15.188C31.096 14.516 31.528 13.988 31.936 13.604C32.104 13.436 32.308 13.352 32.548 13.352C32.74 13.352 32.908 13.4 33.052 13.496C33.196 13.592 33.268 13.712 33.268 13.856C33.268 13.976 33.208 14.096 33.088 14.216C32.92 14.384 32.704 14.66 32.44 15.044C32.2 15.404 31.96 15.788 31.72 16.196C31.48 16.58 31.3 16.904 31.18 17.168C30.964 17.624 30.724 18.14 30.46 18.716C30.196 19.292 30.004 19.76 29.884 20.12C29.812 20.36 29.776 20.54 29.776 20.66C29.776 20.924 29.872 21.056 30.064 21.056C30.232 21.056 30.424 20.984 30.64 20.84C30.856 20.672 31.048 20.528 31.216 20.408C31.816 19.928 32.368 19.424 32.872 18.896C33.4 18.344 33.88 17.828 34.312 17.348C34.408 17.228 34.528 17.168 34.672 17.168C34.792 17.168 34.9 17.24 34.996 17.384C35.116 17.504 35.176 17.66 35.176 17.852C35.176 18.068 35.116 18.248 34.996 18.392C34.636 18.896 34.132 19.46 33.484 20.084C32.86 20.684 32.308 21.164 31.828 21.524C31.516 21.764 31.096 22.004 30.568 22.244C30.064 22.484 29.596 22.604 29.164 22.604ZM35.5205 23.432C34.7045 23.432 34.1405 23.228 33.8285 22.82C33.5165 22.412 33.3605 21.884 33.3605 21.236C33.3605 20.612 33.4685 19.928 33.6845 19.184C33.9245 18.416 34.2005 17.672 34.5125 16.952C34.8485 16.232 35.1725 15.608 35.4845 15.08C35.7965 14.528 36.0365 14.156 36.2045 13.964C36.2765 13.124 36.5285 12.5 36.9605 12.092C37.3925 11.66 37.7645 11.444 38.0765 11.444C38.2205 11.444 38.3285 11.48 38.4005 11.552C38.5925 11.744 38.6885 11.96 38.6885 12.2C38.6885 12.512 38.5445 12.908 38.2565 13.388C37.9685 13.868 37.5365 14.504 36.9605 15.296C36.8885 15.392 36.7325 15.644 36.4925 16.052C36.2525 16.46 36.0005 16.952 35.7365 17.528C35.4725 18.104 35.2445 18.692 35.0525 19.292C34.8605 19.892 34.7645 20.42 34.7645 20.876C34.7645 21.668 35.1125 22.064 35.8085 22.064C36.5525 22.064 37.2845 21.788 38.0045 21.236C38.7485 20.684 39.4325 19.988 40.0565 19.148C40.7045 18.284 41.2685 17.384 41.7485 16.448C42.2525 15.488 42.6365 14.6 42.9005 13.784C43.1885 12.968 43.3325 12.332 43.3325 11.876C43.3325 11.636 43.3085 11.48 43.2605 11.408C43.1645 11.24 43.1165 11.072 43.1165 10.904C43.1165 10.688 43.1885 10.52 43.3325 10.4C43.4765 10.28 43.6325 10.22 43.8005 10.22C44.1605 10.22 44.4245 10.412 44.5925 10.796C44.6885 10.988 44.7365 11.276 44.7365 11.66C44.7365 12.332 44.5685 13.172 44.2325 14.18C43.9205 15.164 43.4645 16.196 42.8645 17.276C42.2885 18.332 41.6165 19.328 40.8485 20.264C40.0805 21.2 39.2405 21.968 38.3285 22.568C37.4165 23.144 36.4805 23.432 35.5205 23.432ZM48.5421 22.46C48.2541 22.46 48.0141 22.364 47.8221 22.172C47.6301 21.956 47.5341 21.716 47.5341 21.452C47.5341 21.164 47.6301 20.936 47.8221 20.768C48.0141 20.576 48.2541 20.48 48.5421 20.48C48.8301 20.48 49.0581 20.576 49.2261 20.768C49.4181 20.936 49.5141 21.164 49.5141 21.452C49.5141 21.716 49.4181 21.956 49.2261 22.172C49.0581 22.364 48.8301 22.46 48.5421 22.46ZM55.1965 23.252C54.1885 23.252 53.4205 23 52.8925 22.496C52.3885 21.992 52.1365 21.344 52.1365 20.552C52.1365 19.64 52.3165 18.776 52.6765 17.96C53.0605 17.144 53.4925 16.388 53.9725 15.692C54.6685 14.684 55.4965 13.832 56.4565 13.136C57.4405 12.416 58.4605 12.056 59.5165 12.056C60.2125 12.056 60.6925 12.224 60.9565 12.56C61.2205 12.872 61.3525 13.268 61.3525 13.748C61.3525 14.252 61.2445 14.78 61.0285 15.332C60.8125 15.86 60.5725 16.28 60.3085 16.592C60.1405 16.784 59.9605 16.88 59.7685 16.88C59.3845 16.88 59.1925 16.712 59.1925 16.376C59.1925 16.208 59.2645 16.052 59.4085 15.908C59.5285 15.788 59.6725 15.512 59.8405 15.08C60.0325 14.624 60.1285 14.228 60.1285 13.892C60.1285 13.556 60.0205 13.376 59.8045 13.352C59.7325 13.328 59.6365 13.316 59.5165 13.316C59.0365 13.316 58.4965 13.508 57.8965 13.892C57.2965 14.252 56.7205 14.732 56.1685 15.332C55.6165 15.932 55.1485 16.568 54.7645 17.24C54.4525 17.768 54.2005 18.332 54.0085 18.932C53.8165 19.532 53.7205 20.048 53.7205 20.48C53.7205 20.936 53.8525 21.296 54.1165 21.56C54.4045 21.824 54.8125 21.956 55.3405 21.956C56.1805 21.956 57.0565 21.728 57.9685 21.272C58.9045 20.816 59.6605 20.348 60.2365 19.868C60.7165 19.46 61.1605 19.04 61.5685 18.608C61.9765 18.152 62.3605 17.732 62.7205 17.348C62.8165 17.228 62.9365 17.168 63.0805 17.168C63.2005 17.168 63.3085 17.24 63.4045 17.384C63.5245 17.504 63.5845 17.66 63.5845 17.852C63.5845 18.068 63.5245 18.248 63.4045 18.392C63.0205 18.896 62.5165 19.46 61.8925 20.084C61.2685 20.684 60.7165 21.164 60.2365 21.524C59.5645 22.004 58.7605 22.412 57.8245 22.748C56.8885 23.084 56.0125 23.252 55.1965 23.252ZM64.2859 23.612C63.4699 23.612 62.8939 23.384 62.5579 22.928C62.2219 22.448 62.0539 21.86 62.0539 21.164C62.0539 20.588 62.1379 19.964 62.3059 19.292C62.4979 18.596 62.7379 17.912 63.0259 17.24C63.0499 16.304 63.3019 15.38 63.7819 14.468C64.2859 13.556 64.9579 12.8 65.7979 12.2C66.6619 11.6 67.6699 11.3 68.8219 11.3C69.9499 11.3 70.7299 11.624 71.1619 12.272C71.6179 12.92 71.8459 13.688 71.8459 14.576C71.8459 15.104 71.7859 15.644 71.6659 16.196C71.5459 16.724 71.3899 17.228 71.1979 17.708C71.0059 18.188 70.7659 18.68 70.4779 19.184C70.1899 19.664 69.8659 20.144 69.5059 20.624C70.2259 20.504 70.8499 20.276 71.3779 19.94C71.9299 19.58 72.4819 19.088 73.0339 18.464C73.5859 17.84 74.2339 17.048 74.9779 16.088C75.1219 15.92 75.2779 15.836 75.4459 15.836C75.6379 15.836 75.7939 15.896 75.9139 16.016C76.0579 16.136 76.1299 16.292 76.1299 16.484C76.1299 16.628 76.0819 16.76 75.9859 16.88C75.2899 17.84 74.5819 18.704 73.8619 19.472C73.1659 20.24 72.3739 20.84 71.4859 21.272C70.5979 21.704 69.5299 21.92 68.2819 21.92C67.7059 22.424 67.0819 22.832 66.4099 23.144C65.7379 23.456 65.0299 23.612 64.2859 23.612ZM66.3739 14.288C66.0859 14.504 65.7379 14.936 65.3299 15.584C64.9219 16.232 64.5499 16.94 64.2139 17.708C64.2619 18.452 64.5619 19.124 65.1139 19.724C65.6899 20.3 66.5659 20.624 67.7419 20.696C68.6059 19.856 69.3019 18.872 69.8299 17.744C70.3579 16.592 70.6219 15.56 70.6219 14.648C70.6219 14.024 70.4779 13.52 70.1899 13.136C69.9019 12.752 69.4459 12.56 68.8219 12.56C68.3899 12.56 67.9699 12.632 67.5619 12.776C67.1539 12.92 66.7819 13.112 66.4459 13.352C66.5659 13.472 66.6259 13.616 66.6259 13.784C66.6259 13.976 66.5419 14.144 66.3739 14.288ZM63.3139 21.092C63.3139 21.476 63.3859 21.788 63.5299 22.028C63.6979 22.244 63.9499 22.352 64.2859 22.352C64.9819 22.352 65.6899 22.136 66.4099 21.704C65.7139 21.536 65.1259 21.272 64.6459 20.912C64.1659 20.528 63.7939 20.096 63.5299 19.616C63.3859 20.192 63.3139 20.684 63.3139 21.092ZM75.7117 23.684C74.8477 23.684 74.2597 23.444 73.9477 22.964C73.6357 22.46 73.4797 21.872 73.4797 21.2C73.4797 20.576 73.5517 19.952 73.6957 19.328C73.8637 18.68 74.0197 18.14 74.1637 17.708C74.1877 17.612 74.2237 17.516 74.2717 17.42C74.2237 17.348 74.1997 17.252 74.1997 17.132C74.1997 16.724 74.3437 16.472 74.6317 16.376C75.0637 15.272 75.5677 14.156 76.1437 13.028C76.7197 11.876 77.3077 10.808 77.9077 9.824C78.5077 8.84 79.0357 8.012 79.4917 7.34C79.8517 6.836 80.2837 6.236 80.7877 5.54C81.3157 4.82 81.9037 4.112 82.5517 3.416C83.2237 2.72 83.9437 2.144 84.7117 1.688C85.4797 1.208 86.2717 0.967998 87.0877 0.967998C87.7597 0.967998 88.2277 1.112 88.4917 1.4C88.7797 1.688 88.9237 2.072 88.9237 2.552C88.9237 3.008 88.8157 3.536 88.5997 4.136C88.3837 4.736 88.0957 5.36 87.7357 6.008C87.2317 6.92 86.5357 7.916 85.6477 8.996C84.7597 10.076 83.7757 11.144 82.6957 12.2C81.6157 13.256 80.4877 14.216 79.3117 15.08C78.1357 15.944 76.9837 16.64 75.8557 17.168C75.7117 17.624 75.5197 18.224 75.2797 18.968C75.0397 19.688 74.9197 20.348 74.9197 20.948C74.9197 21.356 75.0037 21.704 75.1717 21.992C75.3397 22.256 75.6517 22.388 76.1077 22.388C76.4437 22.388 76.8637 22.292 77.3677 22.1C77.8957 21.884 78.4957 21.56 79.1677 21.128C79.9357 20.624 80.6677 20.024 81.3637 19.328C82.0597 18.632 82.6837 17.948 83.2357 17.276C83.3557 17.132 83.4637 17.06 83.5597 17.06C83.6797 17.06 83.7877 17.144 83.8837 17.312C84.0037 17.456 84.0637 17.624 84.0637 17.816C84.0637 18.056 84.0037 18.248 83.8837 18.392C83.5237 18.896 83.0317 19.448 82.4077 20.048C81.8077 20.648 81.2677 21.128 80.7877 21.488C80.5477 21.656 80.2597 21.848 79.9237 22.064C79.5877 22.28 79.0357 22.592 78.2677 23C77.8837 23.192 77.4637 23.348 77.0077 23.468C76.5757 23.612 76.1437 23.684 75.7117 23.684ZM80.0317 9.14C79.3117 10.196 78.6637 11.264 78.0877 12.344C77.5117 13.424 77.0077 14.444 76.5757 15.404C77.8717 14.636 79.1677 13.676 80.4637 12.524C81.7597 11.348 82.9477 10.112 84.0277 8.816C85.1077 7.52 85.9717 6.296 86.6197 5.144C87.1957 4.136 87.4837 3.368 87.4837 2.84C87.4837 2.432 87.2917 2.228 86.9077 2.228C86.3317 2.228 85.7077 2.492 85.0357 3.02C84.3637 3.548 83.7037 4.208 83.0557 5C82.4077 5.768 81.8197 6.536 81.2917 7.304C80.7637 8.072 80.3437 8.684 80.0317 9.14ZM84.8172 23.684C83.9532 23.684 83.3652 23.444 83.0532 22.964C82.7412 22.46 82.5852 21.872 82.5852 21.2C82.5852 20.576 82.6572 19.952 82.8012 19.328C82.9692 18.68 83.1252 18.14 83.2692 17.708C83.2932 17.612 83.3292 17.516 83.3772 17.42C83.3292 17.348 83.3052 17.252 83.3052 17.132C83.3052 16.724 83.4492 16.472 83.7372 16.376C84.1692 15.272 84.6732 14.156 85.2492 13.028C85.8252 11.876 86.4132 10.808 87.0132 9.824C87.6132 8.84 88.1412 8.012 88.5972 7.34C88.9572 6.836 89.3892 6.236 89.8932 5.54C90.4212 4.82 91.0092 4.112 91.6572 3.416C92.3292 2.72 93.0492 2.144 93.8172 1.688C94.5852 1.208 95.3772 0.967998 96.1932 0.967998C96.8652 0.967998 97.3332 1.112 97.5972 1.4C97.8852 1.688 98.0292 2.072 98.0292 2.552C98.0292 3.008 97.9212 3.536 97.7052 4.136C97.4892 4.736 97.2012 5.36 96.8412 6.008C96.3372 6.92 95.6412 7.916 94.7532 8.996C93.8652 10.076 92.8812 11.144 91.8012 12.2C90.7212 13.256 89.5932 14.216 88.4172 15.08C87.2412 15.944 86.0892 16.64 84.9612 17.168C84.8172 17.624 84.6252 18.224 84.3852 18.968C84.1452 19.688 84.0252 20.348 84.0252 20.948C84.0252 21.356 84.1092 21.704 84.2772 21.992C84.4452 22.256 84.7572 22.388 85.2132 22.388C85.5492 22.388 85.9692 22.292 86.4732 22.1C87.0012 21.884 87.6012 21.56 88.2732 21.128C89.0412 20.624 89.7732 20.024 90.4692 19.328C91.1652 18.632 91.7892 17.948 92.3412 17.276C92.4612 17.132 92.5692 17.06 92.6652 17.06C92.7852 17.06 92.8932 17.144 92.9892 17.312C93.1092 17.456 93.1692 17.624 93.1692 17.816C93.1692 18.056 93.1092 18.248 92.9892 18.392C92.6292 18.896 92.1372 19.448 91.5132 20.048C90.9132 20.648 90.3732 21.128 89.8932 21.488C89.6532 21.656 89.3652 21.848 89.0292 22.064C88.6932 22.28 88.1412 22.592 87.3732 23C86.9892 23.192 86.5692 23.348 86.1132 23.468C85.6812 23.612 85.2492 23.684 84.8172 23.684ZM89.1372 9.14C88.4172 10.196 87.7692 11.264 87.1932 12.344C86.6172 13.424 86.1132 14.444 85.6812 15.404C86.9772 14.636 88.2732 13.676 89.5692 12.524C90.8652 11.348 92.0532 10.112 93.1332 8.816C94.2132 7.52 95.0772 6.296 95.7252 5.144C96.3012 4.136 96.5892 3.368 96.5892 2.84C96.5892 2.432 96.3972 2.228 96.0132 2.228C95.4372 2.228 94.8132 2.492 94.1412 3.02C93.4692 3.548 92.8092 4.208 92.1612 5C91.5132 5.768 90.9252 6.536 90.3972 7.304C89.8692 8.072 89.4492 8.684 89.1372 9.14ZM94.3186 23.54C93.5746 23.54 92.9386 23.312 92.4106 22.856C91.9066 22.4 91.6546 21.608 91.6546 20.48C91.6546 19.712 91.8466 18.812 92.2306 17.78C92.6386 16.748 93.1786 15.752 93.8506 14.792C94.5226 13.808 95.2666 13.004 96.0826 12.38C96.8986 11.732 97.7266 11.408 98.5666 11.408C99.1186 11.408 99.5266 11.612 99.7906 12.02C100.079 12.404 100.223 12.872 100.223 13.424C100.223 14.24 99.9586 15.032 99.4306 15.8C98.9026 16.568 98.2306 17.192 97.4146 17.672C96.6226 18.152 95.8306 18.392 95.0386 18.392C94.3906 18.392 93.8986 18.188 93.5626 17.78C93.3706 18.26 93.2146 18.728 93.0946 19.184C92.9746 19.64 92.9146 20.072 92.9146 20.48C92.9146 21.176 93.0586 21.668 93.3466 21.956C93.6586 22.22 94.0426 22.352 94.4986 22.352C95.0506 22.352 95.6626 22.208 96.3346 21.92C97.0306 21.632 97.6786 21.296 98.2786 20.912C98.8786 20.504 99.3226 20.168 99.6106 19.904C100.091 19.496 100.547 19.052 100.979 18.572C101.435 18.068 101.831 17.6 102.167 17.168C102.287 17.024 102.419 16.952 102.563 16.952C102.707 16.952 102.827 17.024 102.923 17.168C103.043 17.288 103.103 17.444 103.103 17.636C103.103 17.804 103.043 17.972 102.923 18.14C102.539 18.62 102.059 19.172 101.483 19.796C100.931 20.396 100.307 20.96 99.6106 21.488C99.2266 21.8 98.7346 22.112 98.1346 22.424C97.5346 22.736 96.8986 23 96.2266 23.216C95.5786 23.432 94.9426 23.54 94.3186 23.54ZM94.9666 17.24C95.4466 17.24 95.9626 17.084 96.5146 16.772C97.0906 16.46 97.5946 16.052 98.0266 15.548C98.4826 15.02 98.7826 14.456 98.9266 13.856C98.9506 13.808 98.9626 13.748 98.9626 13.676C98.9626 13.604 98.9626 13.544 98.9626 13.496C98.9626 13.064 98.8066 12.848 98.4946 12.848C97.9906 12.848 97.4626 13.04 96.9106 13.424C96.3586 13.784 95.8306 14.276 95.3266 14.9C94.8466 15.5 94.4146 16.16 94.0306 16.88C94.1266 16.952 94.2226 17.024 94.3186 17.096C94.4146 17.144 94.5106 17.18 94.6066 17.204C94.6546 17.228 94.7146 17.24 94.7866 17.24C94.8586 17.24 94.9186 17.24 94.9666 17.24ZM103.23 22.748C102.558 22.748 102.054 22.556 101.718 22.172C101.406 21.764 101.25 21.26 101.25 20.66C101.25 19.988 101.442 19.208 101.826 18.32C102.234 17.408 102.762 16.472 103.41 15.512C104.058 14.552 104.766 13.664 105.534 12.848C106.326 12.008 107.118 11.336 107.91 10.832C108.702 10.304 109.434 10.04 110.106 10.04C111.978 10.04 112.914 10.892 112.914 12.596C112.914 12.908 112.842 13.136 112.698 13.28C112.554 13.4 112.41 13.46 112.266 13.46C112.074 13.46 111.954 13.364 111.906 13.172C111.81 12.404 111.57 11.9 111.186 11.66C110.802 11.42 110.442 11.3 110.106 11.3C109.626 11.3 109.062 11.54 108.414 12.02C107.766 12.5 107.106 13.112 106.434 13.856C105.762 14.6 105.126 15.404 104.526 16.268C103.95 17.108 103.482 17.924 103.122 18.716C102.762 19.484 102.582 20.12 102.582 20.624C102.582 20.864 102.618 21.08 102.69 21.272C102.786 21.464 102.93 21.56 103.122 21.56C103.482 21.56 103.95 21.368 104.526 20.984C105.102 20.6 105.726 20.108 106.398 19.508C107.07 18.908 107.73 18.272 108.378 17.6C109.05 16.928 109.638 16.292 110.142 15.692C110.67 15.092 111.066 14.6 111.33 14.216C111.45 14.024 111.606 13.928 111.798 13.928C112.182 13.928 112.374 14.156 112.374 14.612C112.374 14.66 112.362 14.72 112.338 14.792C112.338 14.84 112.326 14.9 112.302 14.972C112.062 15.884 111.702 16.964 111.222 18.212C110.766 19.46 110.25 20.756 109.674 22.1C109.89 22.124 110.118 22.172 110.358 22.244C110.67 22.316 110.826 22.508 110.826 22.82C110.826 22.988 110.742 23.156 110.574 23.324C110.43 23.492 110.238 23.54 109.998 23.468C109.83 23.42 109.662 23.384 109.494 23.36C109.35 23.336 109.23 23.324 109.134 23.324C108.414 24.884 107.67 26.384 106.902 27.824C106.134 29.288 105.414 30.524 104.742 31.532C104.142 32.396 103.47 33.224 102.726 34.016C101.982 34.832 101.19 35.492 100.35 35.996C99.5098 36.5 98.6577 36.752 97.7937 36.752C96.8337 36.752 96.0897 36.512 95.5617 36.032C95.0337 35.552 94.7697 34.916 94.7697 34.124C94.7697 33.404 94.9617 32.6 95.3457 31.712C95.7057 30.824 96.2097 29.936 96.8577 29.048C97.6497 27.968 98.6337 26.912 99.8098 25.88C101.01 24.848 102.33 23.984 103.77 23.288C105.21 22.616 106.71 22.22 108.27 22.1C108.654 21.212 109.014 20.372 109.35 19.58C109.686 18.764 109.974 18.02 110.214 17.348C108.726 19.052 107.358 20.384 106.11 21.344C104.886 22.28 103.926 22.748 103.23 22.748ZM96.1017 33.98C96.1017 34.412 96.2337 34.772 96.4977 35.06C96.7617 35.348 97.2297 35.492 97.9017 35.492C98.7177 35.492 99.5578 35.132 100.422 34.412C101.286 33.716 102.138 32.78 102.978 31.604C103.842 30.428 104.67 29.132 105.462 27.716C106.254 26.3 106.986 24.86 107.658 23.396C106.338 23.588 105.066 23.996 103.842 24.62C102.618 25.268 101.49 26.036 100.458 26.924C99.4497 27.836 98.5977 28.784 97.9017 29.768C97.7097 30.032 97.4697 30.404 97.1817 30.884C96.8937 31.388 96.6417 31.904 96.4257 32.432C96.2097 32.984 96.1017 33.5 96.1017 33.98ZM116.678 23.54C115.934 23.54 115.298 23.312 114.77 22.856C114.266 22.4 114.014 21.608 114.014 20.48C114.014 19.712 114.206 18.812 114.59 17.78C114.998 16.748 115.538 15.752 116.21 14.792C116.882 13.808 117.626 13.004 118.442 12.38C119.258 11.732 120.086 11.408 120.926 11.408C121.478 11.408 121.886 11.612 122.15 12.02C122.438 12.404 122.582 12.872 122.582 13.424C122.582 14.24 122.318 15.032 121.79 15.8C121.262 16.568 120.59 17.192 119.774 17.672C118.982 18.152 118.19 18.392 117.398 18.392C116.75 18.392 116.258 18.188 115.922 17.78C115.73 18.26 115.574 18.728 115.454 19.184C115.334 19.64 115.274 20.072 115.274 20.48C115.274 21.176 115.418 21.668 115.706 21.956C116.018 22.22 116.402 22.352 116.858 22.352C117.41 22.352 118.022 22.208 118.694 21.92C119.39 21.632 120.038 21.296 120.638 20.912C121.238 20.504 121.682 20.168 121.97 19.904C122.45 19.496 122.906 19.052 123.338 18.572C123.794 18.068 124.19 17.6 124.526 17.168C124.646 17.024 124.778 16.952 124.922 16.952C125.066 16.952 125.186 17.024 125.282 17.168C125.402 17.288 125.462 17.444 125.462 17.636C125.462 17.804 125.402 17.972 125.282 18.14C124.898 18.62 124.418 19.172 123.842 19.796C123.29 20.396 122.666 20.96 121.97 21.488C121.586 21.8 121.094 22.112 120.494 22.424C119.894 22.736 119.258 23 118.586 23.216C117.938 23.432 117.302 23.54 116.678 23.54ZM117.326 17.24C117.806 17.24 118.322 17.084 118.874 16.772C119.45 16.46 119.954 16.052 120.386 15.548C120.842 15.02 121.142 14.456 121.286 13.856C121.31 13.808 121.322 13.748 121.322 13.676C121.322 13.604 121.322 13.544 121.322 13.496C121.322 13.064 121.166 12.848 120.854 12.848C120.35 12.848 119.822 13.04 119.27 13.424C118.718 13.784 118.19 14.276 117.686 14.9C117.206 15.5 116.774 16.16 116.39 16.88C116.486 16.952 116.582 17.024 116.678 17.096C116.774 17.144 116.87 17.18 116.966 17.204C117.014 17.228 117.074 17.24 117.146 17.24C117.218 17.24 117.278 17.24 117.326 17.24Z" fill="url(#paint0_linear_2_33)"/>
<defs>
<linearGradient id="paint0_linear_2_33" x1="-1" y1="-7" x2="122" y2="36" gradientUnits="userSpaceOnUse">
<stop offset="0.0656249" stop-color="#D8D135"/>
<stop offset="0.505208" stop-color="#7900C3"/>
<stop offset="0.925" stop-color="#00C3B7"/>
</linearGradient>
</defs>
</svg>
